<svg   version="1.1" xmlns="http://www.w3.org/2000/svg">
  <defs>
    <symbol id="burger" viewBox="0 0 32 32">
      <path d="M5.334 23.027v-1.333h21.333v1.333h-21.333zM5.334 16.667v-1.333h21.333v1.333h-21.333zM5.334 10.307v-1.333h21.333v1.333h-21.333z" fill="currentColor"></path>
    </symbol>

  <symbol id="close" viewBox="0 0 32 32">
<path stroke-linejoin="round" stroke-linecap="round" stroke-miterlimit="4" stroke-width="2" d="M24 8l-16 16M8 8l16 16"></path>
</symbol>

  <symbol id="line-arrow" viewBox="0 0 46 38">
    <path d="M43.8333 19L2.16667 19M43.8333 19L27.1667 35.6666M43.8333 19L27.1667 2.33331" stroke="currentColor" stroke-width="3" stroke-linecap="round" stroke-linejoin="round" />
  </symbol>


 <symbol id="arrow-dropdown" viewBox="0 0 32 32">
<path stroke-linejoin="miter" stroke-linecap="round" stroke-miterlimit="4" stroke-width="4.5714" d="M29.714 24l-13.714-13.714-13.714 13.714"></path>
</symbol>
<symbol id="quote" viewBox="0 0 26 28">
<path d="M12 5v11c0 4.406-3.594 8-8 8h-1c-0.547 0-1-0.453-1-1v-2c0-0.547 0.453-1 1-1h1c2.203 0 4-1.797 4-4v-0.5c0-0.828-0.672-1.5-1.5-1.5h-3.5c-1.656 0-3-1.344-3-3v-6c0-1.656 1.344-3 3-3h6c1.656 0 3 1.344 3 3zM26 5v11c0 4.406-3.594 8-8 8h-1c-0.547 0-1-0.453-1-1v-2c0-0.547 0.453-1 1-1h1c2.203 0 4-1.797 4-4v-0.5c0-0.828-0.672-1.5-1.5-1.5h-3.5c-1.656 0-3-1.344-3-3v-6c0-1.656 1.344-3 3-3h6c1.656 0 3 1.344 3 3z"></path>
</symbol>

<symbol id="location" viewBox="0 0 41 32">
<path d="M9.239 31.927c0.009 0.006 0.021 0.003 0.030 0.009 0.073 0.037 0.149 0.064 0.231 0.064 0.044 0 0.088-0.006 0.132-0.018l10.868-2.966 10.868 2.966c0.044 0.012 0.088 0.018 0.132 0.018 0.082 0 0.158-0.027 0.23-0.065 0.010-0.005 0.021-0.003 0.030-0.009l9-5.5c0.191-0.117 0.281-0.348 0.22-0.563l-4.984-17.5c-0.041-0.147-0.148-0.267-0.29-0.326-0.142-0.057-0.301-0.048-0.436 0.026l-4.962 2.784c-0.24 0.135-0.326 0.44-0.191 0.681s0.439 0.327 0.682 0.191l4.409-2.475 4.707 16.526-8.015 4.899-1.904-15.231c-0.034-0.275-0.293-0.466-0.559-0.434-0.273 0.034-0.468 0.284-0.434 0.558l1.907 15.259-9.91-2.705v-2.73c0-0.276-0.224-0.5-0.5-0.5s-0.5 0.224-0.5 0.5v2.73l-9.911 2.705 1.907-15.259c0.034-0.274-0.16-0.524-0.434-0.558-0.272-0.032-0.524 0.159-0.559 0.434l-1.903 15.231-8.015-4.898 4.707-16.525 4.409 2.475c0.242 0.134 0.546 0.049 0.682-0.191 0.135-0.241 0.049-0.545-0.191-0.681l-4.963-2.785c-0.133-0.075-0.292-0.085-0.435-0.026s-0.249 0.178-0.29 0.326l-4.984 17.5c-0.062 0.216 0.028 0.446 0.22 0.563l8.999 5.5zM20.161 23.368c0.096 0.088 0.217 0.132 0.339 0.132 0.12 0 0.24-0.043 0.336-0.129 0.333-0.303 8.164-7.489 8.164-14.871 0-4.767-3.733-8.5-8.5-8.5s-8.5 3.733-8.5 8.5c0 7.254 7.828 14.56 8.161 14.868zM20.5 1c4.275 0 7.5 3.224 7.5 7.5 0 6.097-5.993 12.337-7.497 13.807-1.501-1.487-7.503-7.809-7.503-13.807 0-4.276 3.225-7.5 7.5-7.5zM25 8.5c0-2.481-2.019-4.5-4.5-4.5s-4.5 2.019-4.5 4.5 2.019 4.5 4.5 4.5 4.5-2.019 4.5-4.5zM20.5 12c-1.93 0-3.5-1.57-3.5-3.5s1.57-3.5 3.5-3.5 3.5 1.57 3.5 3.5-1.57 3.5-3.5 3.5z"></path>
</symbol>

<symbol id="email" viewBox="0 0 32 32">
<path d="M1.206 5.4c-0.588 0.188-1.006 0.612-1.144 1.169-0.044 0.194-0.063 3.050-0.050 9.587l0.019 9.313 0.188 0.337c0.106 0.188 0.3 0.419 0.431 0.519 0.537 0.387-0.506 0.363 15.35 0.363s14.813 0.025 15.35-0.363c0.131-0.1 0.331-0.331 0.431-0.519l0.188-0.337v-18.938l-0.188-0.338c-0.1-0.188-0.3-0.419-0.431-0.519-0.538-0.388 0.512-0.362-15.375-0.356-11.75 0-14.556 0.019-14.769 0.081zM29.625 6.65c-0.050 0.044-2.969 2.237-6.481 4.869-4.281 3.213-6.463 4.806-6.625 4.85-0.306 0.087-0.731 0.087-1.037 0-0.162-0.044-2.344-1.637-6.625-4.85-3.513-2.631-6.431-4.825-6.481-4.869-0.075-0.075 1.962-0.088 13.625-0.088s13.7 0.013 13.625 0.088zM8 12.406c3.625 2.719 6.713 4.994 6.863 5.050 0.15 0.063 0.463 0.144 0.7 0.181 0.525 0.087 1.169 0 1.656-0.225 0.169-0.081 3.281-2.375 6.906-5.094l6.594-4.95 0.019 4.281c0.006 2.356 0.006 6.212 0 8.563l-0.019 4.281-3.469-4.281c-1.906-2.356-3.512-4.313-3.569-4.344-0.169-0.088-0.481-0.069-0.65 0.044-0.175 0.119-0.294 0.419-0.244 0.631 0.025 0.087 1.625 2.119 3.563 4.512l3.525 4.35-6.938 0.019c-3.819 0.006-10.056 0.006-13.875 0l-6.938-0.019 3.525-4.35c1.938-2.394 3.537-4.425 3.563-4.512 0.050-0.212-0.069-0.512-0.244-0.631-0.156-0.1-0.444-0.131-0.625-0.063-0.050 0.025-1.65 1.956-3.544 4.3-1.894 2.337-3.469 4.281-3.494 4.313-0.031 0.038-0.056-3.65-0.056-8.519 0-6.844 0.019-8.569 0.081-8.531 0.038 0.031 3.044 2.275 6.669 4.994z"></path>
</symbol>
<symbol id="clock" viewBox="0 0 24 24">
<path d="M23 12c0-3.037-1.232-5.789-3.222-7.778s-4.741-3.222-7.778-3.222-5.789 1.232-7.778 3.222-3.222 4.741-3.222 7.778 1.232 5.789 3.222 7.778 4.741 3.222 7.778 3.222 5.789-1.232 7.778-3.222 3.222-4.741 3.222-7.778zM21 12c0 2.486-1.006 4.734-2.636 6.364s-3.878 2.636-6.364 2.636-4.734-1.006-6.364-2.636-2.636-3.878-2.636-6.364 1.006-4.734 2.636-6.364 3.878-2.636 6.364-2.636 4.734 1.006 6.364 2.636 2.636 3.878 2.636 6.364zM11 6v6c0 0.389 0.222 0.727 0.553 0.894l4 2c0.494 0.247 1.095 0.047 1.342-0.447s0.047-1.095-0.447-1.342l-3.448-1.723v-5.382c0-0.552-0.448-1-1-1s-1 0.448-1 1z"></path>
</symbol>
<symbol id="phone" viewBox="0 0 32 32">
<path stroke-linejoin="round" stroke-linecap="round" stroke-miterlimit="4" d="M3 9c0 11.045 8.955 20 20 20h3c1.657 0 3-1.343 3-3v0-1.829c0-0.688-0.468-1.288-1.136-1.455l-5.897-1.475c-0.587-0.147-1.203 0.073-1.564 0.556l-1.293 1.724c-0.376 0.501-1.025 0.723-1.613 0.507-4.43-1.661-7.863-5.094-9.488-9.413l-0.036-0.111c-0.216-0.588 0.005-1.237 0.507-1.613l1.724-1.293c0.484-0.361 0.703-0.979 0.556-1.564l-1.475-5.897c-0.169-0.657-0.756-1.136-1.455-1.136h-1.829c-1.657 0-3 1.343-3 3v0 3z"></path>
</symbol>

<symbol id="bend" viewBox="0 0 174 32" preserveAspectRatio="none">
<path d="M0 0v31.886c0 0 43.411-12.444 86.883-12.444s87.004 12.444 87.004 12.444v-31.886h-173.887z"></path>
</symbol>


   <symbol id="check-mark" viewBox="0 0 28 16">
    <path d="M1.5 2L14 14.5L26.5 2"  stroke-width="3" stroke-linecap="round" stroke-linejoin="round" />
  </symbol>

  <symbol id="check" viewBox="0 0 32 32">
<path stroke-linejoin="miter" stroke-linecap="square" stroke-miterlimit="4" stroke-width="5" d="M2.88 17.874l7.497 7.497 18.743-18.743"></path>
</symbol>
  </defs>
</svg>
